<svg xmlns="http://www.w3.org/2000/svg" viewBox="0 0 980 280" font-family="Helvetica, Arial, sans-serif">
  <rect width="980" height="280" fill="#f7f7f9"/>
  <text x="20" y="22" font-size="12" font-weight="700" fill="#e05f36">NETWORK — allow-listed HTTPS</text>
  <rect x="360" y="110" width="260" height="64" rx="8" fill="#fff4ef" stroke="#ff8e68"/>
  <text x="490" y="140" text-anchor="middle" font-size="14">Kynvera app</text>
  <text x="490" y="156" text-anchor="middle" font-size="10" fill="#5c616e">no extra public inbound</text>
  <rect x="20" y="40" width="200" height="36" rx="5" fill="#fff" stroke="#e9eaee"/><text x="120" y="62" text-anchor="middle" font-size="11">Users 443 TLS</text>
  <rect x="20" y="120" width="200" height="36" rx="5" fill="#fff" stroke="#e9eaee"/><text x="120" y="142" text-anchor="middle" font-size="11">PostgreSQL</text>
  <rect x="20" y="200" width="200" height="36" rx="5" fill="#fff" stroke="#e9eaee"/><text x="120" y="222" text-anchor="middle" font-size="11">Redis</text>
  <rect x="760" y="36" width="200" height="36" rx="5" fill="#fff" stroke="#e9eaee"/><text x="860" y="58" text-anchor="middle" font-size="11">Cloudinary 443</text>
  <rect x="760" y="90" width="200" height="36" rx="5" fill="#fff" stroke="#e9eaee"/><text x="860" y="112" text-anchor="middle" font-size="11">Mail 443</text>
  <rect x="760" y="144" width="200" height="36" rx="5" fill="#fff" stroke="#e9eaee"/><text x="860" y="166" text-anchor="middle" font-size="11">LLM 443 optional</text>
  <rect x="760" y="198" width="200" height="36" rx="5" fill="#fff" stroke="#e9eaee"/><text x="860" y="220" text-anchor="middle" font-size="11">Drive / OSM optional</text>
</svg>